<?xml version="1.0" encoding="UTF-8"?>
<!DOCTYPE svg PUBLIC "-//W3C//DTD SVG 1.1//EN" "http://www.w3.org/Graphics/SVG/1.1/DTD/svg11.dtd">
<!-- Creator: CorelDRAW 2023 -->
<svg xmlns="http://www.w3.org/2000/svg" xml:space="preserve" width="100%" height="100%" version="1.1" style="shape-rendering:geometricPrecision; text-rendering:geometricPrecision; image-rendering:optimizeQuality; fill-rule:evenodd; clip-rule:evenodd"
viewBox="12200 9550 5300 1900"
 xmlns:xlink="http://www.w3.org/1999/xlink"
 xmlns:xodm="http://www.corel.com/coreldraw/odm/2003">
 <defs>
  <style type="text/css">
   <![CDATA[
    .fil0 {fill:#052F83;fill-rule:nonzero}
   ]]>
  </style>
 </defs>
 <g id="Слой_x0020_1">
  <metadata id="CorelCorpID_0Corel-Layer"/>
  <path class="fil0" d="M13569.4 9680.99l-111.7 0c-251.62,202.25 -656.15,469.25 -942.1,698.57l0 -491.26c0,-116.49 -1.16,-167.84 26.02,-190.45l0 0c0,0 9.2,-6.5 4.62,-16.86l-198.08 0c-4.21,10.36 5,16.86 5,16.86l0 0c27.19,22.61 26.02,74.03 26.02,190.45l0 1177.18c0,151.3 -9.55,218.42 -44.8,247.55l0 0c0,0 -11.89,8.83 -6.14,21.84l237.91 0c6.14,-13.01 -6.13,-21.84 -6.13,-21.84l0 0c-35.25,-29.13 -44.42,-96.18 -44.42,-247.55l0 -318.38 0 -91.62 0 -109.39c342.08,340.81 717.26,794.89 1235.15,788.87l0 -90.52c-425.83,-7.45 -867.47,-495.62 -1154.03,-786.79 243.75,-184.47 1034.26,-770.4 1039.36,-776.66l-66.68 0zm370.13 1563.45l1442.21 0 0 90.83 -1442.21 0 0 -90.83zm704 -1564.21l-684.83 0c-4.59,10.35 4.62,16.87 4.62,16.87l0 0c27.19,22.61 62.07,74.04 62.07,190.45l0 993.92c0,124.25 -47.52,182.02 -79.71,208.47l0 0c0,0 -11.88,8.41 -6.12,21.82l778.65 0c775.53,0 1114.47,-829.98 556.07,-1246.58 -203.13,-151.55 -382.12,-184.95 -630.75,-184.95zm-32.45 1340.72l-297.52 0c-129.47,0 -151.75,-136.66 -151.75,-171.29l0 -1059.45c0,-6.14 0,-12.26 0.38,-18.78l363.08 -2.14c211.15,-1.25 359.86,-12.49 564.87,98.08 444.13,239.52 400.16,783.87 35.71,1030 -169.84,114.67 -317.21,123.58 -514.77,123.58zm1759.25 -1341.96c-174.07,370.91 -642.48,1427.85 -763.08,1656.28l39.46 0 0 0 165.16 0c8.81,-10.35 2.68,-16.49 2.68,-16.49l0 0c-14.55,-19.16 -32.93,-61.97 3.83,-141.78l139.11 -301.97 857.91 -0.89 105.07 241.54c50.34,115.72 55.72,172.45 36.57,198.11l0 0c0,0 -8.04,8.44 3.83,21.48l226.9 0c-147.63,-292.9 -558.98,-1261.53 -741.41,-1656.28l-76.03 0zm-378.36 1121.7l391.64 -933.47 400.03 933.65 -791.67 -0.18zm1222.3 -1121.68c26.53,0 52.42,6.8 77.74,20.45 25.26,13.61 45.02,33.13 59.09,58.46 14.09,25.38 21.18,51.86 21.18,79.31 0,27.26 -6.94,53.52 -20.88,78.62 -13.88,25.19 -33.35,44.71 -58.45,58.59 -25.1,13.96 -51.36,20.9 -78.68,20.9 -27.41,0 -53.66,-6.94 -78.77,-20.9 -25.1,-13.88 -44.64,-33.4 -58.59,-58.59 -13.94,-25.1 -20.95,-51.36 -20.95,-78.62 0,-27.45 7.07,-53.93 21.24,-79.31 14.24,-25.33 33.98,-44.85 59.23,-58.46 25.32,-13.65 51.23,-20.45 77.84,-20.45zm0 26.19c-22.26,0 -43.93,5.71 -64.97,17.09 -21.03,11.37 -37.47,27.69 -49.35,48.85 -11.88,21.17 -17.82,43.21 -17.82,66.09 0,22.82 5.87,44.65 17.53,65.53 11.66,20.9 27.98,37.19 48.93,48.85 20.97,11.66 42.86,17.53 65.68,17.53 22.75,0 44.63,-5.87 65.59,-17.53 20.96,-11.66 37.25,-27.95 48.85,-48.85 11.59,-20.88 17.38,-42.71 17.38,-65.53 0,-22.88 -5.93,-44.92 -17.72,-66.09 -11.81,-21.16 -28.27,-37.48 -49.37,-48.85 -21.09,-11.38 -42.71,-17.09 -64.73,-17.09zm-69.46 219.31l0 -169.96 58.51 0c20.02,0 34.48,1.57 43.43,4.72 9,3.16 16.09,8.59 21.45,16.45 5.31,7.81 7.93,16.09 7.93,24.9 0,12.38 -4.43,23.24 -13.38,32.4 -8.85,9.23 -20.66,14.38 -35.39,15.52 6.01,2.51 10.86,5.51 14.44,9.01 6.86,6.66 15.23,17.89 25.17,33.7l20.76 33.26 -33.34 0 -15.17 -26.76c-11.86,-21.09 -21.53,-34.32 -28.83,-39.61 -5,-3.87 -12.29,-5.81 -21.94,-5.74l-16.18 0 0 72.11 -27.46 0zm27.46 -95.71l33.34 0c15.95,0 26.82,-2.36 32.61,-7.08 5.8,-4.72 8.74,-11.02 8.74,-18.75 0,-5.01 -1.44,-9.5 -4.23,-13.44 -2.79,-4.01 -6.65,-6.94 -11.58,-8.88 -5.01,-1.93 -14.17,-2.93 -27.61,-2.93l-31.27 0 0 51.08z"/>
 </g>
</svg>
