<?xml version="1.0" encoding="UTF-8"?>
<!DOCTYPE svg PUBLIC "-//W3C//DTD SVG 1.1//EN" "http://www.w3.org/Graphics/SVG/1.1/DTD/svg11.dtd">
<!-- Creator: CorelDRAW 2023 -->
<svg xmlns="http://www.w3.org/2000/svg" xml:space="preserve" width="297mm" height="210mm" version="1.1" style="shape-rendering:geometricPrecision; text-rendering:geometricPrecision; image-rendering:optimizeQuality; fill-rule:evenodd; clip-rule:evenodd"
viewBox="0 0 29700 21000"
 xmlns:xlink="http://www.w3.org/1999/xlink"
 xmlns:xodm="http://www.corel.com/coreldraw/odm/2003">
 <defs>
  <style type="text/css">
   <![CDATA[
    .fil0 {fill:#052F83;fill-rule:nonzero}
   ]]>
  </style>
 </defs>
 <g id="Слой_x0020_1">
  <metadata id="CorelCorpID_0Corel-Layer"/>
  <g id="_2991860126960">
   <path class="fil0" d="M13660.99 8480.45l-111.7 0c-251.62,202.25 -656.15,469.25 -942.1,698.57l0 -491.26c0,-116.49 -1.16,-167.84 26.02,-190.45l0 0c0,0 9.2,-6.5 4.62,-16.86l-198.08 0c-4.21,10.36 5,16.86 5,16.86l0 0c27.19,22.61 26.02,74.03 26.02,190.45l0 1177.18c0,151.3 -9.55,218.42 -44.8,247.55l0 0c0,0 -11.89,8.83 -6.14,21.84l237.91 0c6.14,-13.01 -6.13,-21.84 -6.13,-21.84l0 0c-35.25,-29.13 -44.42,-96.18 -44.42,-247.55l0 -318.38 0 -91.62 0 -109.39c342.08,340.81 717.26,794.89 1235.15,788.87l0 -90.52c-425.83,-7.45 -867.47,-495.62 -1154.03,-786.79 243.75,-184.47 1034.26,-770.4 1039.36,-776.66l-66.68 0zm370.13 1563.45l1442.21 0 0 90.83 -1442.21 0 0 -90.83zm704 -1564.21l-684.83 0c-4.59,10.35 4.62,16.87 4.62,16.87l0 0c27.19,22.61 62.07,74.04 62.07,190.45l0 993.92c0,124.25 -47.52,182.02 -79.71,208.47l0 0c0,0 -11.88,8.41 -6.12,21.82l778.65 0c775.53,0 1114.47,-829.98 556.07,-1246.58 -203.13,-151.55 -382.12,-184.95 -630.75,-184.95zm-32.45 1340.72l-297.52 0c-129.47,0 -151.75,-136.66 -151.75,-171.29l0 -1059.45c0,-6.14 0,-12.26 0.38,-18.78l363.08 -2.14c211.15,-1.25 359.86,-12.49 564.87,98.08 444.13,239.52 400.16,783.87 35.71,1030 -169.84,114.67 -317.21,123.58 -514.77,123.58zm1759.25 -1341.96c-174.07,370.91 -642.48,1427.85 -763.08,1656.28l39.46 0 0 0 165.16 0c8.81,-10.35 2.68,-16.49 2.68,-16.49l0 0c-14.55,-19.16 -32.93,-61.97 3.83,-141.78l139.11 -301.97 857.91 -0.89 105.07 241.54c50.34,115.72 55.72,172.45 36.57,198.11l0 0c0,0 -8.04,8.44 3.83,21.48l226.9 0c-147.63,-292.9 -558.98,-1261.53 -741.41,-1656.28l-76.03 0zm-378.36 1121.7l391.64 -933.47 400.03 933.65 -791.67 -0.18zm1222.3 -1121.68c26.53,0 52.42,6.8 77.74,20.45 25.26,13.61 45.02,33.13 59.09,58.46 14.09,25.38 21.18,51.86 21.18,79.31 0,27.26 -6.94,53.52 -20.88,78.62 -13.88,25.19 -33.35,44.71 -58.45,58.59 -25.1,13.96 -51.36,20.9 -78.68,20.9 -27.41,0 -53.66,-6.94 -78.77,-20.9 -25.1,-13.88 -44.64,-33.4 -58.59,-58.59 -13.94,-25.1 -20.95,-51.36 -20.95,-78.62 0,-27.45 7.07,-53.93 21.24,-79.31 14.24,-25.33 33.98,-44.85 59.23,-58.46 25.32,-13.65 51.23,-20.45 77.84,-20.45zm0 26.19c-22.26,0 -43.93,5.71 -64.97,17.09 -21.03,11.37 -37.47,27.69 -49.35,48.85 -11.88,21.17 -17.82,43.21 -17.82,66.09 0,22.82 5.87,44.65 17.53,65.53 11.66,20.9 27.98,37.19 48.93,48.85 20.97,11.66 42.86,17.53 65.68,17.53 22.75,0 44.63,-5.87 65.59,-17.53 20.96,-11.66 37.25,-27.95 48.85,-48.85 11.59,-20.88 17.38,-42.71 17.38,-65.53 0,-22.88 -5.93,-44.92 -17.72,-66.09 -11.81,-21.16 -28.27,-37.48 -49.37,-48.85 -21.09,-11.38 -42.71,-17.09 -64.73,-17.09zm-69.46 219.31l0 -169.96 58.51 0c20.02,0 34.48,1.57 43.43,4.72 9,3.16 16.09,8.59 21.45,16.45 5.31,7.81 7.93,16.09 7.93,24.9 0,12.38 -4.43,23.24 -13.38,32.4 -8.85,9.23 -20.66,14.38 -35.39,15.52 6.01,2.51 10.86,5.51 14.44,9.01 6.86,6.66 15.23,17.89 25.17,33.7l20.76 33.26 -33.34 0 -15.17 -26.76c-11.86,-21.09 -21.53,-34.32 -28.83,-39.61 -5,-3.87 -12.29,-5.81 -21.94,-5.74l-16.18 0 0 72.11 -27.46 0zm27.46 -95.71l33.34 0c15.95,0 26.82,-2.36 32.61,-7.08 5.8,-4.72 8.74,-11.02 8.74,-18.75 0,-5.01 -1.44,-9.5 -4.23,-13.44 -2.79,-4.01 -6.65,-6.94 -11.58,-8.88 -5.01,-1.93 -14.17,-2.93 -27.61,-2.93l-31.27 0 0 51.08z"/>
   <path class="fil0" d="M12417.61 10541.82l0 275.81 36.49 0 0 -275.81 -36.49 0zm154.54 0l-129.21 130.03 135.65 145.78 45.08 0 -136.51 -146.57 130.07 -129.24 -45.08 0zm100.88 0l0 275.81 36.49 0 0 -275.81 -36.49 0zm345.57 0l0 205.28 -227.52 -219.07 0 289.6 36.49 0 0 -205.28 227.51 219.07 0 -289.6 -36.48 0zm118.04 0l0 275.81 36.49 0 0 -275.81 -36.49 0zm90.15 275.81c29.2,0 55.09,-5.78 77.7,-17.34 22.61,-11.55 40.36,-27.64 53.23,-48.26 12.88,-20.62 19.32,-44.72 19.32,-72.3 0,-27.58 -6.44,-51.68 -19.32,-72.3 -12.87,-20.62 -30.62,-36.71 -53.23,-48.27 -22.61,-11.56 -48.5,-17.34 -77.7,-17.34l-69.97 0 0 33.49 69.97 0c16.89,0 32.33,2.43 46.37,7.29 14.02,4.86 26.04,11.82 36.05,20.89 10.02,9.06 17.75,20.02 23.18,32.9 5.44,12.87 8.16,27.31 8.16,43.34 0,16.02 -2.72,30.47 -8.16,43.34 -5.43,12.87 -13.16,23.84 -23.18,32.9 -10.01,9.06 -22.03,16.02 -36.05,20.88 -14.04,4.86 -29.48,7.29 -46.37,7.29l-69.97 0 0 33.49 69.97 0zm330.54 -275.81l0 275.81 36.49 0 0 -275.81 -36.49 0zm90.14 275.81c29.2,0 55.1,-5.78 77.7,-17.34 22.61,-11.55 40.36,-27.64 53.24,-48.26 12.88,-20.62 19.31,-44.72 19.31,-72.3 0,-27.58 -6.43,-51.68 -19.31,-72.3 -12.88,-20.62 -30.63,-36.71 -53.24,-48.27 -22.6,-11.56 -48.5,-17.34 -77.7,-17.34l-69.96 0 0 33.49 69.96 0c16.89,0 32.34,2.43 46.37,7.29 14.02,4.86 26.04,11.82 36.05,20.89 10.03,9.06 17.75,20.02 23.19,32.9 5.43,12.87 8.16,27.31 8.16,43.34 0,16.02 -2.73,30.47 -8.16,43.34 -5.44,12.87 -13.16,23.84 -23.19,32.9 -10.01,9.06 -22.03,16.02 -36.05,20.88 -14.03,4.86 -29.48,7.29 -46.37,7.29l-69.96 0 0 33.49 69.96 0zm234.82 0l151.53 0 0 -31.52 -151.53 0 0 31.52zm0 -244.29l151.53 0 0 -31.52 -151.53 0 0 31.52zm0 110.33l142.94 0 0 -31.52 -142.94 0 0 31.52zm-20.18 -141.85l0 275.81 36.49 0 0 -275.81 -36.49 0zm248.98 0l0 275.81 154.54 0 0 -31.52 -118.05 0 0 -244.29 -36.49 0zm203.9 0l0 185.19c0,13.66 2.37,26.27 7.08,37.82 4.73,11.56 11.6,21.54 20.61,29.95 9.02,8.4 19.81,14.97 32.41,19.7 12.59,4.73 26.61,7.09 42.07,7.09 15.45,0 29.47,-2.36 42.07,-7.09 12.59,-4.73 23.39,-11.3 32.41,-19.7 9.01,-8.41 15.88,-18.39 20.6,-29.95 4.72,-11.55 7.09,-24.16 7.09,-37.82l0 -185.19 -36.49 0 0 185.19c0,18.91 -5.58,34.15 -16.75,45.7 -11.15,11.56 -27.46,17.34 -48.93,17.34 -21.47,0 -37.78,-5.78 -48.94,-17.34 -11.16,-11.55 -16.74,-26.79 -16.74,-45.7l0 -185.19 -36.49 0zm433.99 0l-63.95 102.05 -62.68 -102.05 -42.93 0 87.14 131.21 -97.87 144.6 42.93 0 72.97 -115.44 70.83 115.44 42.93 0 -95.29 -144.6 88.86 -131.21 -42.94 0zm121.06 275.81l151.53 0 0 -31.52 -151.53 0 0 31.52zm0 -244.29l151.53 0 0 -31.52 -151.53 0 0 31.52zm0 110.33l142.94 0 0 -31.52 -142.94 0 0 31.52zm-20.17 -141.85l0 275.81 36.48 0 0 -275.81 -36.48 0zm393.64 193.07l158.82 0 -12.87 -31.52 -133.07 0 -12.88 31.52zm78.55 -130.81l51.51 111.11 3.44 7.88 43.79 94.56 40.78 0 -139.52 -289.6 -139.51 289.6 40.78 0 44.65 -96.93 3.43 -7.09 50.65 -109.53zm253.27 151.3l-98.73 -213.56 -40.77 0 139.5 289.6 139.52 -289.6 -40.78 0 -98.74 213.56zm174.73 -20.49l158.82 0 -12.88 -31.52 -133.07 0 -12.87 31.52zm78.55 -130.81l51.51 111.11 3.44 7.88 43.79 94.56 40.78 0 -139.52 -289.6 -139.51 289.6 40.78 0 44.65 -96.93 3.43 -7.09 50.65 -109.53zm188.88 -62.26l0 275.81 36.49 0 0 -275.81 -36.49 0zm118.05 0l0 275.81 154.53 0 0 -31.52 -118.04 0 0 -244.29 -36.49 0zm247.68 193.07l158.83 0 -12.88 -31.52 -133.07 0 -12.88 31.52zm78.55 -130.81l51.52 111.11 3.44 7.88 43.79 94.56 40.77 0 -139.52 -289.6 -139.5 289.6 40.78 0 44.64 -96.93 3.43 -7.09 50.65 -109.53zm217.65 67.77l48.51 0c18.03,0 33.69,-2.37 47.01,-7.1 13.3,-4.72 23.67,-11.68 31.11,-20.88 7.44,-9.19 11.17,-20.22 11.17,-33.1 0,-15.76 -3.73,-28.69 -11.17,-38.81 -7.44,-10.11 -17.81,-17.66 -31.11,-22.65 -13.32,-4.99 -28.98,-7.49 -47.01,-7.49l-77.27 0 0 275.81 81.56 0c19.46,0 36.85,-2.96 52.15,-8.87 15.32,-5.91 27.48,-14.84 36.5,-26.79 9.01,-11.95 13.52,-26.99 13.52,-45.11 0,-12.61 -2.58,-23.51 -7.73,-32.7 -5.15,-9.2 -12.38,-16.75 -21.67,-22.66 -9.31,-5.91 -20.12,-10.31 -32.42,-13.2 -12.31,-2.89 -25.75,-4.33 -40.35,-4.33l-52.8 0 0 18.51 52.8 0c9.73,0 18.61,1.12 26.62,3.35 8.01,2.24 14.95,5.59 20.82,10.05 5.87,4.47 10.37,9.98 13.52,16.55 3.14,6.57 4.72,14.05 4.72,22.46 0,11.29 -2.78,20.88 -8.37,28.76 -5.58,7.88 -13.31,13.92 -23.18,18.13 -9.88,4.2 -21.25,6.3 -34.13,6.3l-45.07 0 0 -216.71 40.78 0c15.16,0 27.76,3.62 37.78,10.84 10.01,7.22 15.02,17.4 15.02,30.53 0,8.67 -2.3,16.03 -6.87,22.07 -4.58,6.04 -10.87,10.64 -18.88,13.79 -8.02,3.15 -17.03,4.73 -27.05,4.73l-48.51 0 0 18.52zm223.65 -130.03l0 275.81 154.54 0 0 -31.52 -118.05 0 0 -244.29 -36.49 0zm226.22 275.81l151.53 0 0 -31.52 -151.53 0 0 31.52zm0 -244.29l151.53 0 0 -31.52 -151.53 0 0 31.52zm0 110.33l142.94 0 0 -31.52 -142.94 0 0 31.52zm-20.17 -141.85l0 275.81 36.48 0 0 -275.81 -36.48 0z"/>
   <path class="fil0" d="M13275.39 11831.44l44.52 0c16.55,0 30.93,-2.37 43.15,-7.1 12.21,-4.72 21.73,-11.68 28.56,-20.88 6.83,-9.19 10.25,-20.22 10.25,-33.1 0,-15.76 -3.42,-28.69 -10.25,-38.81 -6.83,-10.11 -16.35,-17.66 -28.56,-22.65 -12.22,-4.99 -26.6,-7.49 -43.15,-7.49l-70.92 0 0 275.81 74.86 0c17.86,0 33.82,-2.96 47.87,-8.87 14.06,-5.91 25.22,-14.84 33.5,-26.79 8.27,-11.95 12.41,-26.99 12.41,-45.11 0,-12.61 -2.37,-23.51 -7.1,-32.7 -4.72,-9.2 -11.36,-16.75 -19.89,-22.66 -8.54,-5.91 -18.46,-10.31 -29.75,-13.2 -11.3,-2.89 -23.64,-4.33 -37.04,-4.33l-48.46 0 0 18.51 48.46 0c8.93,0 17.08,1.12 24.43,3.35 7.36,2.24 13.73,5.59 19.11,10.05 5.39,4.47 9.52,9.98 12.41,16.55 2.89,6.57 4.34,14.05 4.34,22.46 0,11.29 -2.56,20.88 -7.69,28.76 -5.12,7.88 -12.21,13.92 -21.27,18.13 -9.07,4.2 -19.51,6.3 -31.33,6.3l-41.37 0 0 -216.71 37.43 0c13.92,0 25.48,3.62 34.68,10.84 9.19,7.22 13.79,17.4 13.79,30.53 0,8.67 -2.11,16.03 -6.31,22.07 -4.2,6.04 -9.98,10.64 -17.33,13.79 -7.36,3.15 -15.63,4.73 -24.83,4.73l-44.52 0 0 18.52zm223.8 11.82l189.12 0 0 -31.52 -189.12 0 0 31.52zm166.67 -141.85l0 275.81 33.49 0 0 -275.81 -33.49 0zm-185.19 0l0 275.81 33.49 0 0 -275.81 -33.49 0zm533.89 37.43l1.97 -51.22 -240.35 252.17 -1.97 51.22 240.35 -252.17zm-206.86 -37.43l-33.49 0 0 289.6 33.49 -43.34 0 -246.26zm208.83 -13.79l-33.49 43.34 0 246.26 33.49 0 0 -289.6zm113.08 103.23l89.83 160.76 89.84 -160.76 20.49 186.37 33.49 0 -33.49 -289.6 -110.33 199.77 -110.32 -199.77 -33.49 289.6 33.49 0 20.49 -186.37zm330.97 103.63l145.78 0 -11.82 -31.52 -122.14 0 -11.82 31.52zm72.1 -130.81l47.28 111.11 3.16 7.88 40.19 94.56 37.43 0 -128.06 -289.6 -128.05 289.6 37.43 0 40.98 -96.93 3.15 -7.09 46.49 -109.53zm118.21 -30.74l70.92 0 0 244.29 33.49 0 0 -244.29 70.92 0 0 -31.52 -175.33 0 0 31.52zm241.13 244.29l139.08 0 0 -31.52 -139.08 0 0 31.52zm0 -244.29l139.08 0 0 -31.52 -139.08 0 0 31.52zm0 110.33l131.2 0 0 -31.52 -131.2 0 0 31.52zm-18.52 -141.85l0 275.81 33.49 0 0 -275.81 -33.49 0zm424.75 0l-187.16 0 0 173.37c0,10.5 -0.78,20.22 -2.36,29.15 -1.58,8.94 -3.94,16.75 -7.09,23.45 -3.16,6.7 -6.96,11.88 -11.43,15.56 -4.46,3.68 -9.72,5.52 -15.76,5.52l0 28.76c14.97,0 27.52,-4.33 37.63,-13 10.11,-8.67 17.73,-20.23 22.85,-34.68 5.12,-14.44 7.68,-30.07 7.68,-46.88l0 -149.73 122.15 0 0 244.29 33.49 0 0 -275.81zm74.86 0l0 275.81 33.49 0 0 -275.81 -33.49 0zm18.52 141.85l56.34 0c11.82,0 22.26,1.9 31.33,5.71 9.06,3.81 16.15,9.52 21.27,17.14 5.13,7.62 7.69,17.07 7.69,28.37 0,11.29 -2.56,20.75 -7.69,28.37 -5.12,7.61 -12.21,13.33 -21.27,17.14 -9.07,3.8 -19.51,5.71 -31.33,5.71l-56.34 0 0 31.52 56.34 0c17.86,0 33.82,-3.35 47.87,-10.05 14.06,-6.7 25.22,-16.28 33.5,-28.76 8.27,-12.48 12.41,-27.12 12.41,-43.93 0,-17.08 -4.14,-31.79 -12.41,-44.13 -8.28,-12.35 -19.44,-21.87 -33.5,-28.57 -14.05,-6.7 -30.01,-10.04 -47.87,-10.04l-56.34 0 0 31.52zm227.74 0l189.12 0 0 -31.52 -189.12 0 0 31.52zm166.67 -141.85l0 275.81 33.49 0 0 -275.81 -33.49 0zm-185.19 0l0 275.81 33.49 0 0 -275.81 -33.49 0zm498.43 0l0 275.81 33.49 0 0 -275.81 -33.49 0zm-204.89 0l0 275.81 33.49 0 0 -275.81 -33.49 0zm18.52 141.85l56.34 0c11.82,0 22.26,1.9 31.33,5.71 9.06,3.81 16.15,9.52 21.27,17.14 5.13,7.62 7.69,17.07 7.69,28.37 0,11.29 -2.56,20.75 -7.69,28.37 -5.12,7.61 -12.21,13.33 -21.27,17.14 -9.07,3.8 -19.51,5.71 -31.33,5.71l-56.34 0 0 31.52 56.34 0c17.86,0 33.82,-3.35 47.87,-10.05 14.06,-6.7 25.22,-16.28 33.5,-28.76 8.27,-12.48 12.41,-27.12 12.41,-43.93 0,-17.08 -4.14,-31.79 -12.41,-44.13 -8.28,-12.35 -19.44,-21.87 -33.5,-28.57 -14.05,-6.7 -30.01,-10.04 -47.87,-10.04l-56.34 0 0 31.52zm535.07 -104.42l1.97 -51.22 -240.35 252.17 -1.97 51.22 240.35 -252.17zm-206.86 -37.43l-33.49 0 0 289.6 33.49 -43.34 0 -246.26zm208.83 -13.79l-33.49 43.34 0 246.26 33.49 0 0 -289.6zm-172.58 -66.98c0,8.93 2.3,17.67 6.9,26.2 4.59,8.54 11.55,15.5 20.88,20.89 9.32,5.38 20.82,8.07 34.47,8.07 13.93,0 25.48,-2.69 34.68,-8.07 9.19,-5.39 16.09,-12.35 20.68,-20.89 4.6,-8.53 6.9,-17.27 6.9,-26.2l-27.98 0c0,3.42 -0.92,7.42 -2.76,12.02 -1.83,4.6 -5.25,8.67 -10.24,12.21 -4.99,3.55 -12.08,5.32 -21.28,5.32 -9.19,0 -16.28,-1.77 -21.27,-5.32 -4.99,-3.54 -8.41,-7.61 -10.25,-12.21 -1.84,-4.6 -2.75,-8.6 -2.75,-12.02l-27.98 0zm-4073.3 596.02l0 275.81 33.49 0 0 -275.81 -33.49 0zm18.52 31.52l56.34 0c17.86,0 32.38,4.27 43.54,12.81 11.16,8.54 16.75,21.34 16.75,38.42 0,16.81 -5.59,29.55 -16.75,38.21 -11.16,8.67 -25.68,13.01 -43.54,13.01l-56.34 0 0 31.52 56.34 0c17.86,0 33.82,-3.35 47.87,-10.05 14.06,-6.7 25.22,-16.29 33.5,-28.76 8.27,-12.48 12.41,-27.12 12.41,-43.93 0,-17.08 -4.14,-31.79 -12.41,-44.13 -8.28,-12.35 -19.44,-21.87 -33.5,-28.57 -14.05,-6.7 -30.01,-10.05 -47.87,-10.05l-56.34 0 0 31.52zm228.92 106.39c0,-20.75 4.53,-39.27 13.59,-55.56 9.07,-16.28 21.48,-29.16 37.24,-38.61 15.76,-9.46 33.62,-14.19 53.58,-14.19 20.23,0 38.16,4.73 53.79,14.19 15.63,9.45 27.97,22.33 37.03,38.61 9.07,16.29 13.6,34.81 13.6,55.56 0,20.75 -4.53,39.27 -13.6,55.55 -9.06,16.29 -21.4,29.16 -37.03,38.61 -15.63,9.46 -33.56,14.19 -53.79,14.19 -19.96,0 -37.82,-4.73 -53.58,-14.19 -15.76,-9.45 -28.17,-22.32 -37.24,-38.61 -9.06,-16.28 -13.59,-34.8 -13.59,-55.55zm-35.46 0c0,19.96 3.48,38.61 10.44,55.95 6.96,17.33 16.75,32.37 29.36,45.11 12.6,12.74 27.44,22.72 44.52,29.94 17.07,7.23 35.59,10.84 55.55,10.84 20.23,0 38.81,-3.61 55.76,-10.84 16.94,-7.22 31.71,-17.2 44.32,-29.94 12.61,-12.74 22.4,-27.78 29.36,-45.11 6.96,-17.34 10.44,-35.99 10.44,-55.95 0,-20.23 -3.48,-38.94 -10.44,-56.15 -6.96,-17.21 -16.75,-32.18 -29.36,-44.92 -12.61,-12.74 -27.38,-22.72 -44.32,-29.94 -16.95,-7.23 -35.53,-10.84 -55.76,-10.84 -19.96,0 -38.48,3.61 -55.55,10.84 -17.08,7.22 -31.92,17.2 -44.52,29.94 -12.61,12.74 -22.4,27.71 -29.36,44.92 -6.96,17.21 -10.44,35.92 -10.44,56.15zm358.55 0c0,-21.54 4.8,-40.39 14.38,-56.54 9.59,-16.16 22.13,-28.83 37.63,-38.03 15.5,-9.19 32.31,-13.79 50.43,-13.79 13.14,0 25.15,1.71 36.06,5.13 10.9,3.41 20.81,8.2 29.74,14.38 8.93,6.17 16.55,13.33 22.86,21.47l0 -44.13c-11.56,-10.24 -24.17,-17.86 -37.83,-22.85 -13.66,-4.99 -30.6,-7.49 -50.83,-7.49 -19.17,0 -37.1,3.48 -53.78,10.44 -16.68,6.97 -31.32,16.82 -43.93,29.55 -12.61,12.74 -22.46,27.78 -29.55,45.12 -7.09,17.34 -10.64,36.25 -10.64,56.74 0,20.49 3.55,39.4 10.64,56.73 7.09,17.34 16.94,32.38 29.55,45.12 12.61,12.74 27.25,22.59 43.93,29.55 16.68,6.96 34.61,10.44 53.78,10.44 20.23,0 37.17,-2.5 50.83,-7.49 13.66,-4.99 26.27,-12.6 37.83,-22.85l0 -44.13c-6.31,8.15 -13.93,15.3 -22.86,21.48 -8.93,6.17 -18.84,10.96 -29.74,14.38 -10.91,3.41 -22.92,5.12 -36.06,5.12 -18.12,0 -34.93,-4.6 -50.43,-13.79 -15.5,-9.19 -28.04,-21.93 -37.63,-38.22 -9.58,-16.29 -14.38,-35.07 -14.38,-56.34zm262.02 -137.91l0 275.81 33.49 0 0 -275.81 -33.49 0zm141.84 0l-118.59 130.03 124.5 145.78 41.38 0 -125.3 -146.57 119.39 -129.24 -41.38 0zm92.6 137.91c0,-20.75 4.53,-39.27 13.59,-55.56 9.07,-16.28 21.48,-29.16 37.24,-38.61 15.76,-9.46 33.62,-14.19 53.58,-14.19 20.23,0 38.16,4.73 53.79,14.19 15.63,9.45 27.97,22.33 37.03,38.61 9.07,16.29 13.6,34.81 13.6,55.56 0,20.75 -4.53,39.27 -13.6,55.55 -9.06,16.29 -21.4,29.16 -37.03,38.61 -15.63,9.46 -33.56,14.19 -53.79,14.19 -19.96,0 -37.82,-4.73 -53.58,-14.19 -15.76,-9.45 -28.17,-22.32 -37.24,-38.61 -9.06,-16.28 -13.59,-34.8 -13.59,-55.55zm-35.46 0c0,19.96 3.48,38.61 10.44,55.95 6.96,17.33 16.75,32.37 29.36,45.11 12.6,12.74 27.44,22.72 44.52,29.94 17.07,7.23 35.59,10.84 55.55,10.84 20.23,0 38.81,-3.61 55.76,-10.84 16.94,-7.22 31.71,-17.2 44.32,-29.94 12.61,-12.74 22.4,-27.78 29.36,-45.11 6.96,-17.34 10.44,-35.99 10.44,-55.95 0,-20.23 -3.48,-38.94 -10.44,-56.15 -6.96,-17.21 -16.75,-32.18 -29.36,-44.92 -12.61,-12.74 -27.38,-22.72 -44.32,-29.94 -16.95,-7.23 -35.53,-10.84 -55.76,-10.84 -19.96,0 -38.48,3.61 -55.55,10.84 -17.08,7.22 -31.92,17.2 -44.52,29.94 -12.61,12.74 -22.4,27.71 -29.36,44.92 -6.96,17.21 -10.44,35.92 -10.44,56.15zm630.42 106.38l-112.29 0 0 -244.29 -33.5 0 0 244.29 -112.29 0 0 -244.29 -33.49 0 0 275.81 325.06 0 0 -275.81 -33.49 0 0 244.29zm126.87 -102.44l189.12 0 0 -31.52 -189.12 0 0 31.52zm166.67 -141.85l0 275.81 33.49 0 0 -275.81 -33.49 0zm-185.19 0l0 275.81 33.49 0 0 -275.81 -33.49 0zm498.43 0l0 275.81 33.49 0 0 -275.81 -33.49 0zm-204.89 0l0 275.81 33.49 0 0 -275.81 -33.49 0zm18.52 141.85l56.34 0c11.82,0 22.26,1.9 31.33,5.71 9.06,3.81 16.15,9.52 21.27,17.14 5.13,7.62 7.69,17.07 7.69,28.37 0,11.29 -2.56,20.75 -7.69,28.37 -5.12,7.61 -12.21,13.33 -21.27,17.14 -9.07,3.8 -19.51,5.71 -31.33,5.71l-56.34 0 0 31.52 56.34 0c17.86,0 33.82,-3.35 47.87,-10.05 14.06,-6.7 25.22,-16.28 33.5,-28.76 8.27,-12.48 12.41,-27.12 12.41,-43.93 0,-17.08 -4.14,-31.79 -12.41,-44.13 -8.28,-12.35 -19.44,-21.87 -33.5,-28.57 -14.05,-6.7 -30.01,-10.04 -47.87,-10.04l-56.34 0 0 31.52zm535.07 -104.42l1.97 -51.22 -240.35 252.17 -1.97 51.22 240.35 -252.17zm-206.86 -37.43l-33.49 0 0 289.6 33.49 -43.34 0 -246.26zm208.83 -13.79l-33.49 43.34 0 246.26 33.49 0 0 -289.6zm-172.58 -66.98c0,8.93 2.3,17.67 6.9,26.2 4.59,8.54 11.55,15.5 20.88,20.89 9.32,5.38 20.82,8.07 34.47,8.07 13.93,0 25.48,-2.69 34.68,-8.07 9.19,-5.39 16.09,-12.35 20.68,-20.89 4.6,-8.53 6.9,-17.27 6.9,-26.2l-27.98 0c0,3.42 -0.92,7.42 -2.76,12.02 -1.83,4.6 -5.25,8.67 -10.24,12.21 -4.99,3.55 -12.08,5.32 -21.28,5.32 -9.19,0 -16.28,-1.77 -21.27,-5.32 -4.99,-3.54 -8.41,-7.61 -10.25,-12.21 -1.84,-4.6 -2.75,-8.6 -2.75,-12.02l-27.98 0zm477.93 143.03l76.84 201.73 35.46 0 -112.3 -277.78 -112.29 277.78 35.46 0 76.83 -201.73zm110.33 213.55l0 43.34 29.55 0 0 -74.86 -279.75 0 0 74.86 29.55 0 0 -43.34 220.65 0zm98.5 -137.9c0,-20.75 4.53,-39.27 13.59,-55.56 9.07,-16.28 21.48,-29.16 37.24,-38.61 15.76,-9.46 33.62,-14.19 53.58,-14.19 20.23,0 38.16,4.73 53.79,14.19 15.63,9.45 27.97,22.33 37.03,38.61 9.07,16.29 13.6,34.81 13.6,55.56 0,20.75 -4.53,39.27 -13.6,55.55 -9.06,16.29 -21.4,29.16 -37.03,38.61 -15.63,9.46 -33.56,14.19 -53.79,14.19 -19.96,0 -37.82,-4.73 -53.58,-14.19 -15.76,-9.45 -28.17,-22.32 -37.24,-38.61 -9.06,-16.28 -13.59,-34.8 -13.59,-55.55zm-35.46 0c0,19.96 3.48,38.61 10.44,55.95 6.96,17.33 16.75,32.37 29.36,45.11 12.6,12.74 27.44,22.72 44.52,29.94 17.07,7.23 35.59,10.84 55.55,10.84 20.23,0 38.81,-3.61 55.76,-10.84 16.94,-7.22 31.71,-17.2 44.32,-29.94 12.61,-12.74 22.4,-27.78 29.36,-45.11 6.96,-17.34 10.44,-35.99 10.44,-55.95 0,-20.23 -3.48,-38.94 -10.44,-56.15 -6.96,-17.21 -16.75,-32.18 -29.36,-44.92 -12.61,-12.74 -27.38,-22.72 -44.32,-29.94 -16.95,-7.23 -35.53,-10.84 -55.76,-10.84 -19.96,0 -38.48,3.61 -55.55,10.84 -17.08,7.22 -31.92,17.2 -44.52,29.94 -12.61,12.74 -22.4,27.71 -29.36,44.92 -6.96,17.21 -10.44,35.92 -10.44,56.15zm358.55 0c0,-21.54 4.8,-40.39 14.38,-56.54 9.59,-16.16 22.13,-28.83 37.63,-38.03 15.5,-9.19 32.31,-13.79 50.43,-13.79 13.14,0 25.15,1.71 36.06,5.13 10.9,3.41 20.81,8.2 29.74,14.38 8.93,6.17 16.55,13.33 22.86,21.47l0 -44.13c-11.56,-10.24 -24.17,-17.86 -37.83,-22.85 -13.66,-4.99 -30.6,-7.49 -50.83,-7.49 -19.17,0 -37.1,3.48 -53.78,10.44 -16.68,6.97 -31.32,16.82 -43.93,29.55 -12.61,12.74 -22.46,27.78 -29.55,45.12 -7.09,17.34 -10.64,36.25 -10.64,56.74 0,20.49 3.55,39.4 10.64,56.73 7.09,17.34 16.94,32.38 29.55,45.12 12.61,12.74 27.25,22.59 43.93,29.55 16.68,6.96 34.61,10.44 53.78,10.44 20.23,0 37.17,-2.5 50.83,-7.49 13.66,-4.99 26.27,-12.6 37.83,-22.85l0 -44.13c-6.31,8.15 -13.93,15.3 -22.86,21.48 -8.93,6.17 -18.84,10.96 -29.74,14.38 -10.91,3.41 -22.92,5.12 -36.06,5.12 -18.12,0 -34.93,-4.6 -50.43,-13.79 -15.5,-9.19 -28.04,-21.93 -37.63,-38.22 -9.58,-16.29 -14.38,-35.07 -14.38,-56.34zm222.62 -106.39l70.92 0 0 244.29 33.49 0 0 -244.29 70.92 0 0 -31.52 -175.33 0 0 31.52zm425.53 -31.52l-37.44 0 -83.53 183.61 20.89 1.58 -81.17 -185.19 -41.37 0 91.02 194.25 -35.46 81.56 37.43 0 129.63 -275.81zm228.53 31.52l0 244.29 33.49 0 0 -275.81 -218.68 0 0 275.81 33.49 0 0 -244.29 151.7 0zm126.87 110.33l189.12 0 0 -31.52 -189.12 0 0 31.52zm166.67 -141.85l0 275.81 33.49 0 0 -275.81 -33.49 0zm-185.19 0l0 275.81 33.49 0 0 -275.81 -33.49 0zm498.43 0l0 275.81 33.49 0 0 -275.81 -33.49 0zm-204.89 0l0 275.81 33.49 0 0 -275.81 -33.49 0zm18.52 141.85l56.34 0c11.82,0 22.26,1.9 31.33,5.71 9.06,3.81 16.15,9.52 21.27,17.14 5.13,7.62 7.69,17.07 7.69,28.37 0,11.29 -2.56,20.75 -7.69,28.37 -5.12,7.61 -12.21,13.33 -21.27,17.14 -9.07,3.8 -19.51,5.71 -31.33,5.71l-56.34 0 0 31.52 56.34 0c17.86,0 33.82,-3.35 47.87,-10.05 14.06,-6.7 25.22,-16.28 33.5,-28.76 8.27,-12.48 12.41,-27.12 12.41,-43.93 0,-17.08 -4.14,-31.79 -12.41,-44.13 -8.28,-12.35 -19.44,-21.87 -33.5,-28.57 -14.05,-6.7 -30.01,-10.04 -47.87,-10.04l-56.34 0 0 31.52zm535.07 -104.42l1.97 -51.22 -240.35 252.17 -1.97 51.22 240.35 -252.17zm-206.86 -37.43l-33.49 0 0 289.6 33.49 -43.34 0 -246.26zm208.83 -13.79l-33.49 43.34 0 246.26 33.49 0 0 -289.6zm-172.58 -66.98c0,8.93 2.3,17.67 6.9,26.2 4.59,8.54 11.55,15.5 20.88,20.89 9.32,5.38 20.82,8.07 34.47,8.07 13.93,0 25.48,-2.69 34.68,-8.07 9.19,-5.39 16.09,-12.35 20.68,-20.89 4.6,-8.53 6.9,-17.27 6.9,-26.2l-27.98 0c0,3.42 -0.92,7.42 -2.76,12.02 -1.83,4.6 -5.25,8.67 -10.24,12.21 -4.99,3.55 -12.08,5.32 -21.28,5.32 -9.19,0 -16.28,-1.77 -21.27,-5.32 -4.99,-3.54 -8.41,-7.61 -10.25,-12.21 -1.84,-4.6 -2.75,-8.6 -2.75,-12.02l-27.98 0z"/>
  </g>
 </g>
</svg>
